<svg width="30" height="31" viewBox="0 0 30 31" fill="none" xmlns="http://www.w3.org/2000/svg">
<path d="M12.5 6.125V23C12.5 24.35 11.95 25.5875 11.075 26.4875L11.025 26.5375C10.9125 26.65 10.7875 26.7625 10.675 26.85C10.3 27.175 9.87498 27.425 9.43748 27.6C9.29998 27.6625 9.1625 27.7125 9.025 27.7625C8.5375 27.925 8.0125 28 7.5 28C7.1625 28 6.82502 27.9625 6.50002 27.9C6.33752 27.8625 6.175 27.825 6.0125 27.775C5.8125 27.7125 5.62501 27.65 5.43751 27.5625C5.43751 27.55 5.4375 27.55 5.425 27.5625C5.075 27.3875 4.73751 27.1875 4.42501 26.95L4.4125 26.9375C4.25 26.8125 4.10002 26.6875 3.96252 26.5375C3.82502 26.3875 3.6875 26.2375 3.55 26.075C3.3125 25.7625 3.11251 25.425 2.93751 25.075C2.95001 25.0625 2.95001 25.0625 2.93751 25.0625C2.93751 25.0625 2.9375 25.05 2.925 25.0375C2.85 24.8625 2.78749 24.675 2.72499 24.4875C2.67499 24.325 2.63748 24.1625 2.59998 24C2.53748 23.675 2.5 23.3375 2.5 23V6.125C2.5 4.25 3.75 3 5.625 3H9.375C11.25 3 12.5 4.25 12.5 6.125Z" stroke="white" stroke-width="3" stroke-linecap="round" stroke-linejoin="round"/>
<path d="M27.5 21.125V24.875C27.5 26.75 26.25 28 24.375 28H7.5C8.0125 28 8.5375 27.925 9.025 27.7625C9.1625 27.7125 9.29998 27.6625 9.43748 27.6C9.87498 27.425 10.3 27.175 10.675 26.85C10.7875 26.7625 10.9125 26.65 11.025 26.5375L11.075 26.4875L19.575 18H24.375C26.25 18 27.5 19.25 27.5 21.125Z" stroke="white" stroke-width="3" stroke-linecap="round" stroke-linejoin="round"/>
<path d="M6.0125 27.775C5.2625 27.55 4.55002 27.1375 3.96252 26.5375C3.36252 25.95 2.94999 25.2375 2.72499 24.4875C3.21249 26.05 4.45 27.2875 6.0125 27.775Z" stroke="white" stroke-width="3" stroke-linecap="round" stroke-linejoin="round"/>
<path d="M22.9625 14.6125L19.575 18L11.075 26.4875C11.95 25.5875 12.5 24.35 12.5 23V10.925L15.8875 7.53751C17.2125 6.21251 18.9875 6.21251 20.3125 7.53751L22.9625 10.1875C24.2875 11.5125 24.2875 13.2875 22.9625 14.6125Z" stroke="white" stroke-width="3" stroke-linecap="round" stroke-linejoin="round"/>
<path d="M7.5 24.25C8.19036 24.25 8.75 23.6904 8.75 23C8.75 22.3096 8.19036 21.75 7.5 21.75C6.80964 21.75 6.25 22.3096 6.25 23C6.25 23.6904 6.80964 24.25 7.5 24.25Z" stroke="white" stroke-width="3" stroke-linecap="round" stroke-linejoin="round"/>
</svg>
