<svg width="22" height="22" viewBox="0 0 22 22" fill="none" xmlns="http://www.w3.org/2000/svg">
<path d="M15.3083 17.3983H6.69167C6.30667 17.3983 5.87583 17.0958 5.7475 16.7292L1.9525 6.11416C1.41167 4.5925 2.04417 4.125 3.34583 5.06L6.92083 7.6175C7.51667 8.03 8.195 7.81916 8.45167 7.15L10.065 2.85083C10.5783 1.47583 11.4308 1.47583 11.9442 2.85083L13.5575 7.15C13.8142 7.81916 14.4925 8.03 15.0792 7.6175L18.4342 5.225C19.8642 4.19833 20.5517 4.72083 19.965 6.38L16.2617 16.7475C16.1242 17.0958 15.6933 17.3983 15.3083 17.3983Z" stroke="#292D32" stroke-width="2" stroke-linecap="round" stroke-linejoin="round"/>
<path d="M5.95831 20.1666H16.0416" stroke="#292D32" stroke-width="2" stroke-linecap="round" stroke-linejoin="round"/>
<path d="M8.70831 12.8334H13.2916" stroke="#292D32" stroke-width="2" stroke-linecap="round" stroke-linejoin="round"/>
</svg>
