<svg width="18" height="23" viewBox="0 0 18 23" fill="none" xmlns="http://www.w3.org/2000/svg">
<path d="M8.33141 5.82973C11.7977 7.21591 14.1571 5.89802 14.9905 5.28953C14.6644 4.20892 14.2114 3.13764 13.7801 2.39698H4.25575C3.79461 3.18272 3.3128 4.32125 2.97919 5.44082C4.15158 5.14287 6.09312 4.93442 8.33141 5.82973ZM8.33141 5.82973L8.14576 6.29399M8.33141 5.82973L8.14576 6.29399M8.14576 6.29399C12.3138 7.9608 15.0145 5.94375 15.5644 5.47377L2.82438 6.00183C3.87203 5.69068 5.8399 5.37164 8.14576 6.29399ZM14.6335 13.4534L14.6333 13.4535C13.3611 14.5456 11.6898 15.172 9.7967 15.3057V18.8561L14.6873 20.6312L14.6335 13.4534ZM14.6335 13.4534C16.2209 12.0899 17.0402 10.1157 17.0402 7.79122C17.0402 6.78108 16.7421 5.48477 16.3365 4.28391C15.93 3.08018 15.3941 1.91007 14.88 1.15316C14.8069 1.04548 14.7086 0.957328 14.5936 0.896426L14.36 1.33759M14.6335 13.4534L14.36 1.33759M14.36 1.33759L14.5936 0.896424C14.4787 0.835585 14.3507 0.803797 14.2207 0.803833C14.2206 0.803833 14.2205 0.803833 14.2205 0.803833H3.81626C3.5529 0.803833 3.30554 0.934338 3.15713 1.15289C2.63532 1.92102 2.09028 3.09768 1.67635 4.30252C1.26386 5.50315 0.959778 6.79449 0.959778 7.79122C0.959778 10.1159 1.7856 12.0906 3.38401 13.4552L3.38403 13.4552M14.36 1.33759L3.38403 13.4552M3.38403 13.4552C4.65447 14.5397 6.31771 15.1631 8.20329 15.3021V18.8389L3.51717 20.6108C3.43934 20.622 3.36339 20.6446 3.29185 20.6781C3.1862 20.7277 3.09274 20.7998 3.01806 20.8894L3.01805 20.8894M3.38403 13.4552L3.01805 20.8894M3.01805 20.8894C2.94336 20.979 2.88926 21.084 2.85958 21.1968L3.34188 21.3237L2.85958 21.1968C2.8299 21.3096 2.82535 21.4276 2.84628 21.5423C2.86719 21.6571 2.91307 21.7659 2.98065 21.861C3.04823 21.9561 3.13588 22.0352 3.23739 22.0927L3.47753 21.6688L3.23739 22.0927C3.33888 22.1502 3.45177 22.1847 3.56812 22.1938C3.647 22.1999 3.72614 22.1943 3.80297 22.1772M3.01805 20.8894L3.80297 22.1772M3.80297 22.1772L14.4147 22.1772L14.4158 22.1772H3.80297ZM8.9719 20.2519L9.88627 20.5838H8.09422L8.9719 20.2519ZM11.3054 8.03381C13.1165 8.0336 14.5028 7.44957 15.3733 6.93513C15.4209 7.24818 15.4465 7.53682 15.4465 7.79095C15.4465 9.69446 14.7916 11.217 13.5949 12.2443L13.5948 12.2443C12.5286 13.1598 11.0454 13.6886 9.27643 13.7356H8.75673C6.98366 13.6891 5.49302 13.1602 4.41828 12.2431C3.21235 11.2137 2.55318 9.6914 2.55318 7.79122C2.55318 7.62669 2.56517 7.44405 2.58772 7.24695C3.02226 7.06314 5.15596 6.27603 7.73958 7.30944L7.73973 7.30949C9.04953 7.83292 10.2449 8.03381 11.3053 8.03381H11.3054ZM15.106 20.9814C15.0122 20.8192 14.8641 20.6953 14.688 20.6315L14.6733 21.2319L15.106 20.9814Z" fill="white" stroke="white"/>
</svg>
