<svg width="26" height="25" viewBox="0 0 26 25" fill="none" xmlns="http://www.w3.org/2000/svg">
<path d="M12.3227 6.06328H13.6777C13.9516 6.06328 14.1715 5.83867 14.1715 5.5707C14.1715 5.29805 13.9516 5.07812 13.6777 5.07812H12.3227C12.0488 5.07812 11.8289 5.29805 11.8289 5.5707C11.8289 5.83867 12.0484 6.06328 12.3227 6.06328ZM13 7.73828C7.93945 7.73828 3.80352 11.9551 3.55664 17.2355H22.4434C22.1965 11.9547 18.0605 7.73828 13 7.73828ZM2.45312 18.216L4.27422 19.4562C4.63789 19.7066 5.35117 19.9219 5.79531 19.9219H20.2051C20.6492 19.9219 21.3625 19.7066 21.7262 19.4562L23.5469 18.216H2.45312Z" fill="white"/>
</svg>
